<svg xmlns="http://www.w3.org/2000/svg" id="Layer_1" data-name="Layer 1" viewBox="225.74 134.57 548.59 730.91">
    <path d="M771.76,613.51c-5-.23-10.09-.83-15.13-.81-3,0-4.44-1.06-5.56-3.76q-9.93-23.85-20.15-47.59c-.69-1.61-.66-2.27,1.14-3.16a9.46,9.46,0,0,0,5-11.1,9.89,9.89,0,0,0-9.33-7,9.73,9.73,0,0,0-9.27,7.5c-1.09,4.18.86,8.48,5.17,10.65,1.64.82,2,1.47,1.32,3.22q-9.61,24.15-19,48.37a2.86,2.86,0,0,1-2.9,2.1c-4.61.2-9.22.46-13.82.86-2,.17-2.72-.24-2.57-2.44.32-4.82.38-9.67.49-14.5.12-5.83.1-5.83,5.95-6.57a6.85,6.85,0,0,1,1-.15c2.71.06,2.44-1.06,1.4-3Q679.65,557.24,664,528.24a4.55,4.55,0,0,0-4.64-2.71c-6.27,0-12.53-.34-18.79-.33-2.35,0-3-.89-3-3.09-.06-3.84-.44-7.68-.63-11.52-.13-2.61-1.09-5.77,0-7.69,1.23-2.11,4.91-.95,7.36-1.89.15-.06.25-.28.5-.6a64,64,0,0,1-5.93-10.48c-4.77-10.89-7.9-22.3-10.75-33.8a320.81,320.81,0,0,1-7.52-41.7c-.43-3.84-1.94-8.45,3.82-10.12.09,0,.15-.16.23-.23a9.44,9.44,0,0,0-7.17-16.44,9.86,9.86,0,0,0-8.23,6.64c-1.11,4.18.37,8.55,4.06,10.56,2.18,1.19,2.49,2.49,2.16,4.74-.73,4.88-1.07,9.81-1.65,14.72A426.11,426.11,0,0,1,604.26,477c-2.12,8.58-4.26,17.16-8.36,25.4,2.75,0,5.05.05,7.36,0,1.46-.05,2.21.33,2.19,2q-.09,7.92,0,15.83c0,1.6-.59,2.09-2.12,2.06-3.85-.07-7.71-.18-11.54,0-2.67.15-3.54-.57-3.55-3.39q-.25-73.06-.75-146.12c0-2.18.28-3.59,2.83-3.75,1.9-.12,2.66-1.1,2.43-3.27a59.8,59.8,0,0,1,4.81-30.88,57.51,57.51,0,0,0-11.23-.66c-2,0-3-.41-3-2.73q0-9.39-.55-18.78c-.17-3,.13-5,3.88-4.25,1.89.36,2.2-.46,1.58-2.23-1.09-3.1-2-6.27-2.82-9.44-6.77-24.75-12.32-49.78-17.1-75-3.28-17.31-6-62.53-5.71-80.24a42.39,42.39,0,0,0-.4-4.47l0,.65c0-.28,0-.55,0-.82,0-2.23-.3-3-2.7-1.73A117.31,117.31,0,0,1,541.11,143c-9.12,2.91-18.26,5.67-27.88.48a49.92,49.92,0,0,0,5.46,12.78c5.08,8.41,12.14,11.25,21.84,9.3,7.67-1.54,14.17-5.55,20.91-9.1-.15,2.4-.34,4.79-.62,7.18-1,8.61-1.16,45.14-2.54,53.7a430.45,430.45,0,0,1-23.52,88.1c-.94,2.42-.8,3.45,2,3,2.11-.35,2.82.48,2.76,2.66-.14,5.94-.08,11.88,0,17.81,0,1.73-.46,2.55-2.38,2.71-3,.24-6.07.87-9.12,1.29-1.47.2-2.1.56-1.39,2.31,4.63,11.37,6,23.25,5.1,35.64a39.81,39.81,0,0,0,4.16-.8c1.56-.45,2.19-.14,2.15,1.62q-.69,30.33-1.3,60.66c0,.8.19,1.62-1,2.14-4.74,2.11-7.58,1.12-9.8-3.63-.18-.4-.38-.8-.56-1.2-5.26-11.65-8.24-24-10.86-36.44-2.79-13.32-5.16-26.7-5.67-40.34-.05-1.43,0-2.57,1.68-3.41,4.46-2.18,6.44-6.27,5.5-10.46a9.89,9.89,0,0,0-9-7.47,9.52,9.52,0,0,0-9.4,6.82c-1.3,4.36.44,8.65,4.92,11.05,1.62.86,1.81,1.82,1.75,3.33A203.62,203.62,0,0,1,498,393c-2.3,9.27-5.12,18.36-9.66,26.83-1.19,2.22-2.48,4.44-5.07,5.81,0-11-.18-21.7.05-32.35.25-11.88-1.21-24,4.74-35.18,1-1.78.57-2.84-1.73-2.92s-3.52-1-3.17-3.67.1-5.26.21-7.9c.22-5.61.25-5.61,5.65-6.47-2-4.42-4.1-8.73-5.83-13.19-11.55-29.76-22.14-119.28-22.14-119.28,0-2-1.35-.8-2.05-.41a62.94,62.94,0,0,1-11.84,4.88,143.38,143.38,0,0,1-35.26,6c8.25,6.55,17.08,9.31,26.34,10.6,7.24,1,14.64,1.74,21.28-2.37-.34,4.24-.6,7.63-.62,8.06A237.6,237.6,0,0,1,456,258.61c-3.62,24-8.62,47.67-13.91,71.31-.52,2.34-2.13,5.35-1.23,6.88,1.21,2.09,4.59.68,7,.78,1.9.09,2.86.51,2.81,2.59-.11,4.06-.1,8.13-.05,12.2,0,1.64-.49,2.27-2.25,2.36-3.65.17-3.64.29-2.23,3.85,1.29,3.27,2.6,6.53,3.88,9.79a12.12,12.12,0,0,1,.89,4.47q.06,38.6.2,77.17c0,7.61,0,15.22,0,22.82-1-.26-1.27-.59-1.41-1a211.17,211.17,0,0,1-8.82-32.31c-.3-1.5.33-2.13,1.36-2.94a7.74,7.74,0,0,0,3.08-7.53,8.09,8.09,0,0,0-7.49-7.13,8.27,8.27,0,0,0-8.33,5.23,8,8,0,0,0,3.2,9.81,3.5,3.5,0,0,1,1.8,3.73c-.45,6-1.44,12-2.47,17.93-3,17.52-7.92,34.57-13.11,51.54-.86,2.79-.28,3.63,2.44,3.38,1.49-.14,2.11.35,2.1,2q-.13,17.14-.05,34.3c0,1.57-.52,2.08-2.09,2q-6.26-.15-12.53,0c-1.95.05-2.67-.54-2.66-2.61q.09-27.54,0-55.09c0-1.38.26-2.42,1.74-2.66,2.42-.4,2.7-2,2.75-4.1.2-8.9.51-17.8.79-26.7.2-6.56.21-6.56,6.09-8.83a5.34,5.34,0,0,0-.44-.86c-15.26-19.06-26.22-40.5-34.32-63.39-1.88-5.31-4.76-10.36-4.76-16.39,0-15.39-.49-30.78-.65-46.16,0-2.66-.78-2.69-2.77-1.57-5.94,3.34-11.87,6.69-17.91,9.81-7.26,3.74-14.44,7.77-23.69,9.08,15.09,6.74,29.19,4.35,43.24-.17.14.27.33.46.32.65q-.39,16.65-.84,33.29c0,.43,0,1.09-.25,1.24-3.21,1.87-3.29,5.54-4.68,8.38-10.59,21.72-24.26,41.5-38.2,61.11-1,1.4-2.26,2.65-2.67,4.45,5.54.72,5.51.72,5.61,6.24.19,9.78.45,19.56.59,29.34,0,1.54.36,2.68,2,2.72,3.85.11,4.79,2.17,4.12,5.58a17.3,17.3,0,0,0,0,3c-.17,17-.37,34.08-.49,51.12a7.68,7.68,0,0,1-2,5q-14.73,18.18-29.34,36.46c-.69.86-1.94,1.54-1.52,3a7.28,7.28,0,0,0,1.69.17c3-.36,3.84.89,3.91,3.9.21,9.22.85,18.44,1.24,27.66.12,3,1.86,6.84,0,9s-6,1.36-9.05,2.15a2.3,2.3,0,0,1-.67-.05c-.63-1.13-.29-2.37-.21-3.54.63-9.09,1.28-18.19,2.06-27.27.19-2.28-.43-3.1-2.79-3.2-3.83-.16-7.64-.9-11.47-1-2.36-.08-3.46-1.26-4.56-3-7.4-11.9-12.68-24.8-18.06-37.66-.91-2.17-1-3.24,1.73-4.26,5.35-2,7.63-7.69,6-13.33-1.47-5-7.16-8.27-12.56-7.27a10.83,10.83,0,0,0-8.61,11.28c.39,6,4.1,9.16,10,10.57-6.24,13.08-13.54,25.21-20.83,37.35-2.6,4.32-5.26,7.15-10.68,6.32-1.91-.29-3.94.23-5.91.31-4.66.19-4.65.17-4.08,4.81q2.57,20.89,5.09,41.81c.67,5.58.61,5.74,6,5.54,2.68-.1,3.59.52,3.44,3.38-.84,15.36-1.44,30.73-2.21,46.1-1.22,24.58-2.51,49.17-3.74,73.75-1.11,22.17-2.14,44.35-3.27,66.52-.48,9.39.6,11.34,9.19,15.32.7.32,1.42.6,2.14.85,14,4.78,28.27,4.43,42.57,1.58,5.28-1.05,10.7-2.36,14.51-6.45s8.61-6,13.83-6.94c12.64-2.16,24.9,0,36.92,4a5.58,5.58,0,0,1,3.11,1.76c4.83,6.95,12.11,8.25,19.76,8.4,11.77.23,23-2.59,34.13-6.21a28.4,28.4,0,0,1,4.89-1.29c-17.32-20.9-27.59-48-26.53-76.49.59-15.93,4.2-31.07,10.4-46.32-7.71-.6-14.73-.38-21.58-2-46.22-11-66.46-62.89-40.59-104.25,23.28-37.23,71.34-49.11,105.25-25.54,21.95,15.26,30.57,37,27.53,63.25-.78,6.75.07,8.09,7.08,6.45,19.86-4.65,39.72-3.26,59.76,2.8.45-8.35-1.85-16-.93-23.93,5.28-45.42,47.92-71.49,92.4-56.34,45,15.33,66.16,68.19,42.48,107.34-13.06,21.58-33.13,31.44-58.21,31.4-10,0-10,0-6.68,9,15.45,41.38,6.5,83.33-17.74,113.13l3.84.11a5,5,0,0,1,3.58,1.23,30,30,0,0,0,12.38,6.64c16.69,4.64,33,2.72,49.11-3a19.41,19.41,0,0,0,8.06-5.45c6.66-7.39,22.68-7.81,29.43-.55,5,5.36,11.11,8,17.85,9.85a100.83,100.83,0,0,0,39.2,2.39c5.75-.72,11.49-1.86,16.42-5.32,2.42-1.71,3.8-3.78,3.41-6.93-.55-4.47-.89-9-1.28-13.45-1.4-16.08-2.74-32.17-4.17-48.26-1.64-18.37-3.38-36.74-5-55.11-1.76-19.46-3.45-38.94-5.24-58.4-.69-7.61-1-8.06,5.92-11.24s10.48-7.38,11-15.41c.76-11.35,3-22.59,4.77-33.86C774.54,614.34,773.89,613.6,771.76,613.51Z"/></svg>