<svg xmlns="http://www.w3.org/2000/svg" xmlns:xlink="http://www.w3.org/1999/xlink" version="1.1" id="Layer_1" x="0px" y="0px" style="enable-background:new 0 0 600 600;" xml:space="preserve" viewBox="118.42 61.36 359.98 477.75">
<style type="text/css">
	.st0{fill-rule:evenodd;clip-rule:evenodd;fill:#B5D9E8;}
	.st1{fill-rule:evenodd;clip-rule:evenodd;fill:#FFFFFF;}
</style>
<path id="XMLID_4_" class="st0" d="M473.2,515.1c-1.1-13.4-2.2-26.8-3.4-40.1c-1.7-19.2-3.3-38.4-5.4-57.5c-0.6-5.3,1-8.1,5.6-10.2  c1.9-0.9,4.1-3,4.5-4.9c1.7-8.4,2.9-17,3.9-25.6c0.1-1-1.3-2.9-2.4-3.2c-2.4-0.6-5-0.8-7.5-0.7c-3.3,0.1-5-1.4-6.2-4.4  c-3.4-8.5-7.1-16.9-10.8-25.3c-1.1-2.5-1.6-4.3,1-6.5c2.8-2.4,2.1-7.1-0.6-9.5c-2.7-2.4-6.8-2.2-9.4,0.3c-2.8,2.8-2.9,6.7-0.1,9.6  c0.5,0.5,1.1,1,1.6,1.6c0.5,0.4,0.6,1.1,0.4,1.7c-3.7,9.4-7.3,18.9-11.1,28.2c-0.7,1.7-2.7,3.3-4.4,3.6c-1.9,0.3-3.8,0.4-6.1,0.5  c-0.9,0.1-1.7-0.7-1.7-1.7c0.2-3.6,0.4-7,0.6-10.4c0-0.7,0.6-1.3,1.2-1.4c4.8-1,4.8-1.9,2.3-6.5c-5.3-9.6-11-19.1-15.7-29  c-2.5-5.2-8-8.4-13.8-7.9c-6.3,0.5-6.3-0.3-6.8-7c-0.1-1.3-0.4-2.8-0.1-4c0.3-1.2,1.2-2.8,2.2-3.1c2.8-0.9,2.3-2.3,1.3-4.2  c-1.2-2.2-2.4-4.5-3.3-6.8c-5.7-14.6-8.7-29.8-10.8-45.2c-0.4-3.2-0.5-5.8,2.4-8.1c3-2.4,2.7-6.6,0.2-9.2c-2.5-2.5-6.8-2.7-9.5-0.5  c-2.6,2.2-3.4,6.6-1,8.9c2.7,2.6,3,5.4,2.5,8.7c-0.3,2.1-0.3,4.2-0.8,6.3c-3.1,14.9-6.1,29.9-9.6,44.7c-1.2,5.1-2,5.4,2.3,6.3  c0.7,0.1,1.1,0.8,1.1,1.5v7.6c0,0.9-0.3,1.4-1.2,1.4h-6.3c-0.7,0-1.4-0.4-1.5-1.1c0-0.1,0-0.1,0-0.1c-0.2-31.1-0.4-62.2-0.6-93.3  c0-1.1,0.7-2.2,1.1-3.3c0.7-1.7,2-3.2,2.3-4.9c0.9-5.2,1.2-10.5,2.4-15.7c0.6-2.9-0.9-3.3-2.7-3.6c-5.7-1.2-5.8-1.1-5.8-7  c0-2-0.1-4,0-6c0-0.7,0.2-2,0.6-2.1c4.2-1.1,2.3-3.9,1.7-6.1c-6.3-23-11.8-46.1-14.8-69.8c0,0,0-0.1,0-0.1l-1-29.4l0,0  c0-2,0-4.1-0.1-6.1c-0.2-3-1.7-3.9-4.5-2.5c-3,1.5-6,2.8-9.2,3.9c-6,2.3-12.2,3.5-18.9,1.5c0,0.5,0.1,1,0.2,1.4h0l0,0  c0.5,3.4,1.8,6.4,3.7,8.7c2,2.9,4.9,5.4,9,5.3c1.2,0.1,2.5,0.1,3.7-0.3c1-0.2,1.9-0.5,2.9-0.9c3.2-0.9,6.2-2.3,8.4-3.5  c1.4,0.8,1.1,0.7,2.5,1.5l-0.2,20.4c-0.6,5.7-1,11.4-1.9,17c-3,18.5-7.8,36.6-14.4,54.3c-0.4,1-0.6,3.1-0.3,3.2  c4.4,2,2.4,5.9,2.9,9.1c0.7,4.1-1.1,6.2-5.2,6.4c-2.9,0.1-3.4,1.4-2.8,4.2c1.2,6.2,1.8,12.5,2.8,18.8c0.1,0.9,0.8,2.5,1.3,2.5  c3.5,0.2,2.8,2.7,2.7,4.7c-0.3,11.1-0.6,22.1-1,33.2c0,0.7-0.4,1.3-0.8,2c-0.4,0.7-1.2,0.9-2,0.6c-1.1-0.4-2.2-0.9-2.8-1.7  c-1.2-1.5-1.7-3.6-2.4-5.5c-4.7-13.9-7.2-28.3-8.8-42.8c-0.1-1.4,1-3.2,2-4.3c3.2-3.4,3.6-7.3,0.8-10.3c-2.7-2.7-7-2.8-9.7-0.1  c-2.8,2.8-2.5,7.1,0.6,10.3c1,1.1,1.7,2.8,2,4.3c0.2,1.5-0.4,3.1-0.6,4.7c-1.4,11.5-3.8,22.8-8.3,33.5c-0.2,0.4-0.4,0.8-0.6,1.2  c-0.7,1.3-2.8,0.9-2.9-0.6c-0.3-2.5-0.3-4.8-0.2-7.1c0.6-9.9-0.9-20,3-29.6c0.3-0.8-0.5-2.5-1.2-3.3c-2.1-2.2-2.6-8.2-0.2-10  c2.1-1.5,1.8-2.9,1-4.7c-9.3-20.2-13.3-41.7-15.9-63.6c-0.8-7.2-1-17.5-1-17.5h0c0-3-1.2-2.8-3.8-2c-8.1,2.3-16.3,4.1-24.5,6.3  c-0.6,0.1-1.1,0.3-1.7,0.5c-0.9,0.4-1.3,1.5-0.7,2.3c0.3,0.5,0.7,0.8,1.7,1.3c6.6,3.4,13.7,5.1,21.1,4.6c1.6-0.1,2.9-0.2,4-0.4  c1.1-0.2,2,0.7,1.9,1.8c-0.1,0.6-0.2,1.1-0.3,1.5c-0.1,0.3-0.2,0.5-0.2,0.8c0,0.3-0.1,0.5-0.1,0.8c0,0,0,0,0,0v0  c-1,4.7-0.8,9.5-1.6,14.2c-3.1,16.6-6.4,33.1-9.7,49.6c-0.6,2.8-0.1,4.6,3.1,4.5c2.3-0.1,3.2,1,2.9,3.1c-0.3,2.6,1.2,5.7-2.5,7.3  c-0.4,0.2-0.4,2.2-0.2,3.2c0.8,2.8,2.5,5.5,2.6,8.3c0.2,17,0.1,34.1,0.1,51.1c0,1.8-2.6,2.2-3.1,0.4c-0.6-2.3-1.2-4.6-1.7-6.9  c-0.2-0.9,0.5-2,1-2.9c2.2-3.7,1.9-6.8-1-8.8c-2.6-1.8-5.3-1.6-7.7,0.6c-2.2,2.1-2,5.7,0.3,8.6c0.8,1,1.5,2.3,1.5,3.5  c-0.1,2.6-0.5,5.3-1.1,7.9c-2.7,11.5-5.6,22.9-8.4,34.4c-0.3,1.3-0.6,3.7,0,4c3.2,1.7,2.4,4.5,2.4,7c0.1,4.4-0.3,8.8,0.1,13.2  c0.4,4.6-2.2,4.4-5.5,4.5c-3.4,0.1-4.9-0.7-4.8-4.4c0.2-9.9,0-19.8,0.1-29.6c0-1.2,0-2.8,0.7-3.4c2.8-2.4,2.3-5.5,2.5-8.5  c0.2-2.9-0.1-5.9,0.1-8.8c0.2-2.7-0.2-6.6,1.3-7.9c3.1-2.6,1.7-4,0.2-6.2c-10.9-16.2-20.7-32.8-23.6-52.4c0-0.1,0-0.2,0-0.3  c0-1.6,0.1-10.1,0.1-16.5c0-0.1,0-0.2,0-0.3c0.4-1.7,0.3-4.2,0-7.8c0-0.3,0,0,0-0.8c0-0.8-0.7-2.9-2.9-1.9  c-7.6,3.7-15.2,7.5-23.4,11.6c-1.2,0.6-1.1,2.4,0.1,2.9c5.4,2,10.4,1.6,15.5,1c3-0.4,5.2-0.7,6.8-1.2c1-0.3,2,0.5,2,1.6  c-0.2,5.9-0.5,12.9-0.4,14.9c0,0.3,0,0.6-0.1,0.9c-0.2,1.1-0.2,2.5-0.7,3.5c-4.9,8.9-9.6,17.8-14.8,26.4  c-4.4,7.3-9.4,14.1-14.2,21.2c0,0,0,0,0,0c0.7,0,1.4,0.4,1.6,1.2c0.6,2.3,1.4,4.6,1.6,6.9c0.4,4.2,0.3,8.5,0.3,12.8  c0,2.6-0.2,5.1,2.9,6.3c0.6,0.2,0.9,1.8,0.9,2.7c0,11.1,0.1,22.2-0.1,33.2c0,1.9-1,4.2-2.2,5.7c-5.4,7-11,13.7-16.5,20.6  c-1.4,1.8-4.1,3.8,0,5.9c0.7,0.4,0.9,2.1,1,3.2c0.4,6,0.5,12,0.9,17.9c0.2,3.3-1,4.3-3.6,4.1c-0.8-0.1-1.4-0.7-1.4-1.5  c0-0.9,0-1.8,0-2.7c0.3-4.1,0.4-8.2,0.9-12.3c0.4-3.3-0.3-5.2-4-5.1c-1.2,0-2.4-0.5-3.5-0.4c-2.8,0.2-4.5-1-5.7-3.4  c-3.3-7.1-6.8-14.1-10-21.3c-0.4-1,0.2-3,1-3.8c2.3-2.3,4.2-4.6,3.4-8c-0.8-3.8-3.3-6.2-7.1-6.4c-3.6-0.2-6.3,1.5-7.8,5  c-1.5,3.7-0.3,6.7,2.6,8.7c2.8,1.9,2.5,3.5,1,5.9c-3.1,5.1-6.3,10.2-8.9,15.6c-2.7,5.5-6.2,8.7-12.6,7.8c-2.4-0.3-3.6,1-3.2,3.7  c1.2,8.5,2.4,17.1,3.1,25.7c0.3,3.7,1.2,6.1,5,6.4c0.8,0.1,1.4,0.8,1.4,1.7c-0.4,5.8-0.8,11.3-1.1,16.9c-0.8,16.5-1.6,33-2.4,49.5  c-0.8,18.3-1.6,36.7-2.4,55c-0.3,6.2,1,8.1,6.8,10.5c8.6,3.5,17.5,3,26.4,2c5.3-0.6,10.4-2.1,14.3-6.4c0.7-0.8,2-1.4,3.1-1.7  c11.4-2.9,22.3-2.7,32,5c1.1,0.9,2.5,1.8,3.9,1.9c5.1,0.4,10.4,1,15.4,0.4c6.1-0.8,12.1-3.5,18.2-4.2c8.9-1,17.8-1.3,26.8-1.5  c-0.7-0.4-1.3-0.8-2-1.3c-9.5-6.3-16.5-14.7-20.9-25.2c-6.3-14.9-6.1-29.8-0.2-44.8c-0.2,0-0.4,0-0.6,0c-3.9,0.4-7.8,0.2-11.6-0.7  c-8.6-2-15.4-6.5-20.2-13.9c-5.1-7.8-6.3-16.4-4.5-25.4c1.7-8.6,6-15.7,12.4-21.6c5.3-4.9,11.6-8.3,18.7-9.9  c1.6-0.3,3.2-0.9,4.8-0.9c2.2,0,4.4,0,6.6,0c0.2,0,0.4,0.2,0.6,0.3c0.1,0,0.2,0,0.2,0c1,6.4,2.2,15.1,1.7,17.9c0,0-11.7,17.6-2.1,27  c0,0,9.9,8.3,30.1-1.4c0,0,3.3-1.9,5.8-5.2c2.3-0.5,4.7-0.8,7-0.9c1.4,0.5,3,0.6,5.1,0.1c0,0,0.3,0,0.7-0.2c2.1,0.1,4.3,0.3,6.4,0.6  c2.1,2.8,5.9,6.5,12.2,8.9c0,0,26.7,9.2,27-8.5c0,0,2.5-7.6-5.5-19.1c0,0,4.7-9.7,6.6-19.4c1.5,0,3,0,4.5,0c0.8,0,1.5,0.3,2.3,0.5  c7.3,1.1,13.8,4.1,19.4,8.8c7.3,6.1,12.3,13.7,14.2,23.1c0.3,1.4,0.8,2.9,0.8,4.3c0,2.1,0,4.2,0,6.3c0,0.6-0.3,1.3-0.4,1.9  c-1,6.7-3.8,12.6-8.5,17.5c-7,7.3-15.8,10.5-25.8,10.2c-0.8,0-1.6-0.1-2.5-0.1c3.4,8.3,4.9,16.9,4.4,25.8c-0.5,8.9-3,17.2-7.5,24.9  c-4.4,7.7-10.4,14.1-17.8,19.1c-0.7,0.5-1.4,0.9-2.1,1.3c8.5,0,17,0.3,25.4,0.6c1.4,0,3.2,0.1,4.2,0.9c8.3,6.4,17.9,6.3,27.5,5.4  c7.4-0.7,14.6-2.3,20.4-7.8c4.3-4.1,12.3-3,17.3,1c3.2,2.5,6.8,5,10.6,5.9c6.3,1.5,12.9,2.5,19.3,2.4c5.6-0.1,11.2-1.6,16.7-3.2  c3.6-1,4.9-4,4.2-8C473.8,523.6,473.6,519.4,473.2,515.1z"/>
<g id="XMLID_197_">
	<path id="XMLID_5_" class="st1" d="M338.4,435.2c3.2-0.9,5.6-4.9,6.2-9c1-6.8-2.5-13.3-5.1-17.3c-0.8,1.8-1.8,3.4-2.8,4.1   c3.6-12.1,12.9-23.4,9-37.4c-0.8-1.7-1.7-3.2-3.2-4.1c-3.7-2.7-9.8-1.9-13.3,0.2c-10.9,6.8-21,18.7-24.2,34.1   c0.9,2,1.2,3.9,1.3,5.8c3-4.4,6.7-7.6,11.4-9.4c0.7-0.1,1.3-0.3,2.3-0.3c-1.3,0.7-2.4,1.1-3.4,1.7c-3.8,2.3-7.5,4.9-10.1,11.6   c-0.3,0.9-0.6,1.5-1,2.4c0,0,1.8,14.1,18.9,17.3C324.5,434.9,330.6,436.9,338.4,435.2L338.4,435.2z"/>
	<path id="XMLID_12_" class="st1" d="M280.3,431.1c5-2.4,9-6.7,9.5-14.2c-1-3.6-3.4-6.1-5.6-8.2c-2.2-2.1-5.6-3.5-8.9-3.8   c0.5-0.1,2.9-0.9,4.9-0.3c4.6,1.4,6.5,3.9,8.9,6.9c0.4-2.3,1.1-4.5,2.3-6.1c-0.1-6.7-5.2-18.6-8.1-23.1   c-4.7-7.4-10.6-13.9-19.6-15.8c-3.3-0.5-5.3,0.8-6.9,2.3c-3.9,3.6-4.2,10.7-3.4,16.2c1.8,9.1,3.8,18.8,3,28.6   c-0.6-1.4-0.9-2.5-1.2-4.6c-2.6,4.3-5.7,10.8-5.1,17.3c0.5,3.4,2.7,6.2,5.2,7.1C255.2,433.2,264.4,438.4,280.3,431.1L280.3,431.1z"/>
	<path id="XMLID_13_" class="st1" d="M304.1,416.9c0.8-2.5,0.8-6.2,0.2-8.1c-0.6-2-2.7-6-6.4-6.3c-4.3-0.3-7.2,4.9-8,10.1   c0.5,1.3,2,3.8,1.6,6.4c0,0,0,2.7,3.7,4.7c3.6,2,8.9-0.7,9.6-3.5C305.1,419.1,304.1,416.9,304.1,416.9L304.1,416.9z"/>
</g>
</svg>